<svg width="140" height="40" viewBox="0 0 140 40" fill="none" xmlns="http://www.w3.org/2000/svg">
<g clip-path="url(#clip0_420_3958)">
<path fill-rule="evenodd" clip-rule="evenodd" d="M36 20.0099C36 28.1064 30.6454 34.9589 23.2953 37.2101C21.6158 37.7235 19.8375 38 17.9802 38C9.62239 38 2.60812 32.3127 0.572997 24.6111C0.256861 23.4065 0.0592755 22.1624 0 20.8788V19.1212C0.0197585 18.7263 0.0592755 18.3313 0.0987925 17.9364C0.197585 17.028 0.375412 16.1196 0.612514 15.2507C2.68716 7.62809 9.68167 2 18 2C23.5719 2 28.551 4.5277 31.8705 8.51673C33.3721 10.3138 34.5181 12.4268 35.2294 14.7175C35.7234 16.3763 36 18.1536 36 20.0099Z" fill="#F55266"/>
<path d="M17.4656 23.6238C16.9519 23.6238 16.4777 23.3078 16.3196 22.7944C16.1221 22.1625 16.458 21.4911 17.0902 21.2936L24.7565 18.8251L23.5513 10.5706L10.234 15.1916C9.60175 15.4088 8.92996 15.0731 8.71262 14.4411C8.49527 13.8092 8.83117 13.1378 9.46344 12.9206L23.3537 8.10214C23.9069 7.90466 24.5194 7.96391 24.9936 8.26012C25.4481 8.53659 25.7642 9.01053 25.8432 9.54372L27.1868 18.7264C27.3251 19.7138 26.6929 20.7209 25.7049 21.0566L17.841 23.5843C17.7027 23.6041 17.5842 23.6238 17.4656 23.6238Z" fill="white"/>
<path d="M24.776 23.7621C24.5982 23.1302 23.9264 22.755 23.2941 22.9524C23.1361 22.9919 19.6191 24.0188 18.1174 24.5323C15.7859 25.3222 14.8375 24.552 14.6992 24.4335L8.13937 16.021C6.79579 14.1055 4.74091 14.0265 3.73322 14.2635L0.611377 15.2508C0.374275 16.1395 0.196449 17.0281 0.0976562 17.9365L4.32598 16.5739C4.54332 16.5344 5.51149 16.416 6.18328 17.3836L12.8419 25.9343C13.5927 26.8822 14.8573 27.2574 16.2008 27.2574C17.1097 27.2574 18.0581 27.0797 18.888 26.7835C20.3304 26.3095 23.9264 25.2432 23.9659 25.2432C24.5982 25.0654 24.9736 24.4138 24.776 23.7621Z" fill="white"/>
<path d="M18.6891 30.6539C18.6891 31.7203 17.8197 32.5892 16.7527 32.5892C15.6858 32.5892 14.8164 31.7203 14.8164 30.6539C14.8164 29.5875 15.6858 28.7186 16.7527 28.7186C17.8197 28.7186 18.6891 29.5875 18.6891 30.6539Z" fill="white"/>
<path d="M27.2047 28.4818C27.2047 29.5482 26.3353 30.4171 25.2684 30.4171C24.2014 30.4171 23.332 29.5482 23.332 28.4818C23.332 27.4154 24.2014 26.5465 25.2684 26.5465C26.3353 26.5465 27.2047 27.4154 27.2047 28.4818Z" fill="white"/>
<path d="M60.6706 17.4346H57.4831C57.3922 16.9119 57.2246 16.4488 56.9803 16.0454C56.736 15.6363 56.432 15.2897 56.0684 15.0056C55.7047 14.7215 55.29 14.5085 54.824 14.3664C54.3638 14.2187 53.8667 14.1448 53.3326 14.1448C52.3837 14.1448 51.5428 14.3835 50.8098 14.8608C50.0769 15.3323 49.503 16.0255 49.0882 16.9403C48.6735 17.8494 48.4661 18.9602 48.4661 20.2727C48.4661 21.6079 48.6735 22.7329 49.0882 23.6477C49.5087 24.5568 50.0826 25.2443 50.8098 25.7102C51.5428 26.1704 52.3809 26.4005 53.324 26.4005C53.8468 26.4005 54.3354 26.3323 54.79 26.196C55.2502 26.0539 55.6621 25.8465 56.0257 25.5738C56.3951 25.3011 56.7047 24.9659 56.9547 24.5681C57.2104 24.1704 57.3865 23.7159 57.4831 23.2045L60.6706 23.2215C60.5513 24.0511 60.2928 24.8295 59.8951 25.5568C59.503 26.284 58.9888 26.9261 58.3525 27.4829C57.7161 28.034 56.9718 28.4659 56.1195 28.7784C55.2672 29.0852 54.3212 29.2386 53.2814 29.2386C51.7473 29.2386 50.378 28.8835 49.1735 28.1733C47.9689 27.463 47.0201 26.4375 46.3269 25.0965C45.6337 23.7556 45.2871 22.1477 45.2871 20.2727C45.2871 18.392 45.6365 16.784 46.3354 15.4488C47.0343 14.1079 47.986 13.0823 49.1905 12.3721C50.3951 11.6619 51.7587 11.3068 53.2814 11.3068C54.253 11.3068 55.1564 11.4431 55.9917 11.7159C56.8269 11.9886 57.5712 12.3892 58.2246 12.9176C58.878 13.4403 59.415 14.0823 59.8354 14.8437C60.2615 15.5994 60.54 16.463 60.6706 17.4346Z" fill="#181D25"/>
<path d="M67.1969 29.2642C66.3674 29.2642 65.6202 29.1164 64.9554 28.821C64.2963 28.5198 63.7736 28.0767 63.3873 27.4914C63.0066 26.9062 62.8162 26.1846 62.8162 25.3267C62.8162 24.588 62.9526 23.9772 63.2253 23.4943C63.498 23.0113 63.8702 22.625 64.3418 22.3352C64.8134 22.0454 65.3446 21.8267 65.9355 21.6789C66.5321 21.5255 67.1486 21.4147 67.785 21.3465C68.552 21.267 69.1742 21.196 69.6515 21.1335C70.1287 21.0653 70.4753 20.963 70.6912 20.8267C70.9128 20.6846 71.0236 20.4659 71.0236 20.1704V20.1193C71.0236 19.4772 70.8333 18.9801 70.4526 18.6278C70.0719 18.2755 69.5236 18.0994 68.8077 18.0994C68.052 18.0994 67.4526 18.2642 67.0094 18.5937C66.5719 18.9233 66.2765 19.3125 66.123 19.7613L63.2424 19.3522C63.4696 18.5568 63.8446 17.892 64.3674 17.3579C64.8901 16.8181 65.5293 16.4147 66.285 16.1477C67.0407 15.875 67.8759 15.7386 68.7907 15.7386C69.4213 15.7386 70.0492 15.8125 70.6742 15.9602C71.2992 16.1079 71.8702 16.3522 72.3873 16.6931C72.9043 17.0284 73.3191 17.4858 73.6316 18.0653C73.9498 18.6448 74.1088 19.3693 74.1088 20.2386V29H71.1429V27.2017H71.0407C70.8532 27.5653 70.589 27.9062 70.248 28.2244C69.9128 28.5369 69.4895 28.7897 68.9782 28.9829C68.4725 29.1704 67.8787 29.2642 67.1969 29.2642ZM67.998 26.9971C68.6174 26.9971 69.1543 26.875 69.6088 26.6306C70.0634 26.3806 70.4128 26.0511 70.6571 25.642C70.9071 25.2329 71.0321 24.7869 71.0321 24.3039V22.7613C70.9355 22.8409 70.7708 22.9147 70.5378 22.9829C70.3105 23.0511 70.0549 23.1108 69.7708 23.1619C69.4867 23.213 69.2054 23.2585 68.927 23.2983C68.6486 23.338 68.4071 23.3721 68.2026 23.4005C67.7424 23.463 67.3304 23.5653 66.9668 23.7073C66.6032 23.8494 66.3162 24.0483 66.106 24.3039C65.8958 24.5539 65.7907 24.8778 65.7907 25.2755C65.7907 25.8437 65.998 26.2727 66.4128 26.5625C66.8276 26.8522 67.356 26.9971 67.998 26.9971Z" fill="#181D25"/>
<path d="M77.2111 29V15.909H80.2026V18.0909H80.339C80.5776 17.3352 80.9867 16.7528 81.5662 16.3437C82.1515 15.9289 82.8191 15.7215 83.5691 15.7215C83.7395 15.7215 83.9299 15.7301 84.1401 15.7471C84.356 15.7585 84.535 15.7784 84.677 15.8068V18.6448C84.5463 18.5994 84.339 18.5596 84.0549 18.5255C83.7765 18.4858 83.5066 18.4659 83.2452 18.4659C82.6827 18.4659 82.177 18.588 81.7282 18.8323C81.285 19.071 80.9355 19.4034 80.6799 19.8295C80.4242 20.2556 80.2963 20.7471 80.2963 21.3039V29H77.2111Z" fill="#181D25"/>
<path d="M93.9668 15.909V18.2954H86.4412V15.909H93.9668ZM88.2992 12.7727H91.3844V25.0625C91.3844 25.4772 91.4469 25.7954 91.5719 26.017C91.7026 26.2329 91.873 26.3806 92.0833 26.4602C92.2935 26.5397 92.5265 26.5795 92.7821 26.5795C92.9753 26.5795 93.1515 26.5653 93.3105 26.5369C93.4753 26.5085 93.6003 26.4829 93.6855 26.4602L94.2054 28.8721C94.0407 28.9289 93.8049 28.9914 93.498 29.0596C93.1969 29.1278 92.8276 29.1676 92.3901 29.1789C91.6174 29.2017 90.9213 29.0852 90.302 28.8295C89.6827 28.5681 89.1912 28.1647 88.8276 27.6193C88.4696 27.0738 88.2935 26.392 88.2992 25.5738V12.7727Z" fill="#181D25"/>
<path d="M96.3766 29V27.0397L103.127 18.5767V18.4659H96.5982V15.909H106.902V18.0142L100.476 26.3323V26.4431H107.124V29H96.3766Z" fill="#181D25"/>
<path d="M110.024 29V15.909H113.109V29H110.024ZM111.575 14.0511C111.086 14.0511 110.666 13.8892 110.313 13.5653C109.961 13.2358 109.785 12.8409 109.785 12.3806C109.785 11.9147 109.961 11.5198 110.313 11.196C110.666 10.8664 111.086 10.7017 111.575 10.7017C112.069 10.7017 112.49 10.8664 112.836 11.196C113.188 11.5198 113.365 11.9147 113.365 12.3806C113.365 12.8409 113.188 13.2358 112.836 13.5653C112.49 13.8892 112.069 14.0511 111.575 14.0511Z" fill="#181D25"/>
<path d="M119.367 11.5454V29H116.281V11.5454H119.367Z" fill="#181D25"/>
<path d="M125.624 11.5454V29H122.539V11.5454H125.624Z" fill="#181D25"/>
<path d="M132.564 29.2642C131.735 29.2642 130.987 29.1164 130.323 28.821C129.664 28.5198 129.141 28.0767 128.754 27.4914C128.374 26.9062 128.183 26.1846 128.183 25.3267C128.183 24.588 128.32 23.9772 128.593 23.4943C128.865 23.0113 129.237 22.625 129.709 22.3352C130.181 22.0454 130.712 21.8267 131.303 21.6789C131.899 21.5255 132.516 21.4147 133.152 21.3465C133.919 21.267 134.541 21.196 135.019 21.1335C135.496 21.0653 135.842 20.963 136.058 20.8267C136.28 20.6846 136.391 20.4659 136.391 20.1704V20.1193C136.391 19.4772 136.2 18.9801 135.82 18.6278C135.439 18.2755 134.891 18.0994 134.175 18.0994C133.419 18.0994 132.82 18.2642 132.377 18.5937C131.939 18.9233 131.644 19.3125 131.49 19.7613L128.61 19.3522C128.837 18.5568 129.212 17.892 129.735 17.3579C130.257 16.8181 130.896 16.4147 131.652 16.1477C132.408 15.875 133.243 15.7386 134.158 15.7386C134.789 15.7386 135.416 15.8125 136.041 15.9602C136.666 16.1079 137.237 16.3522 137.754 16.6931C138.271 17.0284 138.686 17.4858 138.999 18.0653C139.317 18.6448 139.476 19.3693 139.476 20.2386V29H136.51V27.2017H136.408C136.22 27.5653 135.956 27.9062 135.615 28.2244C135.28 28.5369 134.857 28.7897 134.345 28.9829C133.84 29.1704 133.246 29.2642 132.564 29.2642ZM133.365 26.9971C133.985 26.9971 134.521 26.875 134.976 26.6306C135.431 26.3806 135.78 26.0511 136.024 25.642C136.274 25.2329 136.399 24.7869 136.399 24.3039V22.7613C136.303 22.8409 136.138 22.9147 135.905 22.9829C135.678 23.0511 135.422 23.1108 135.138 23.1619C134.854 23.213 134.573 23.2585 134.294 23.2983C134.016 23.338 133.774 23.3721 133.57 23.4005C133.11 23.463 132.698 23.5653 132.334 23.7073C131.97 23.8494 131.683 24.0483 131.473 24.3039C131.263 24.5539 131.158 24.8778 131.158 25.2755C131.158 25.8437 131.365 26.2727 131.78 26.5625C132.195 26.8522 132.723 26.9971 133.365 26.9971Z" fill="#181D25"/>
</g>
<defs>
<clipPath id="clip0_420_3958">
<rect width="140" height="40" fill="white"/>
</clipPath>
</defs>
</svg>
